<svg width="64" height="65" viewBox="0 0 64 65" fill="none" xmlns="http://www.w3.org/2000/svg">
<path d="M56.0688 35.5771L56.0364 35.6419C56.1659 34.5736 56.2954 33.4729 56.2954 32.3723C56.2954 31.2716 56.1983 30.2357 56.0688 29.1674L56.1012 29.2322L64 23.0167L56.1335 9.35559L46.8427 13.1108L46.8751 13.1431C45.1917 11.8483 43.3465 10.7476 41.3394 9.90592H41.3718L39.8826 0H24.1173L22.693 9.93829H22.7253C20.7183 10.78 18.873 11.8806 17.1897 13.1755L17.2221 13.1431L7.89884 9.35559L0 23.0167L7.89884 29.2322L7.93121 29.1674C7.80172 30.2357 7.7046 31.2716 7.7046 32.3723C7.7046 33.4729 7.80172 34.5736 7.96358 35.6419L7.93121 35.5771L1.13303 40.9186L0.0647453 41.7602L7.93121 55.3566L17.2544 51.6338L17.1897 51.5043C18.9054 52.8316 20.7506 53.9322 22.7901 54.7739H22.693L24.1497 64.7446H39.8503C39.8503 64.7446 39.9474 64.1619 40.0445 63.3849L41.2747 54.8063H41.2423C43.2494 53.9646 45.127 52.8639 46.8427 51.5367L46.7779 51.6662L56.1012 55.389L63.9676 41.7926C63.9676 41.7926 63.5144 41.4041 62.8993 40.9509L56.0688 35.5771ZM31.9838 43.7026C25.736 43.7026 20.6535 38.6201 20.6535 32.3723C20.6535 26.1244 25.736 21.042 31.9838 21.042C38.2317 21.042 43.3141 26.1244 43.3141 32.3723C43.3141 38.6201 38.2317 43.7026 31.9838 43.7026Z" fill="#717170"/>
</svg>
